HIERARCHY
ROOT Hips
{
    OFFSET 0.00 0.00 0.00
    CHANNELS 6 Xposition Yposition Zposition Yrotation Xrotation Zrotation
    JOINT Spine
    {
        OFFSET 0.00 10.00 0.00
        CHANNELS 3 Yrotation Xrotation Zrotation
        End Site
        {
            OFFSET 0.00 10.00 0.00
        }
    }
    JOINT LeftUpLeg
    {
        OFFSET -5.00 0.00 0.00
        CHANNELS 3 Yrotation Xrotation Zrotation
        JOINT LeftLeg
        {
            OFFSET 0.00 -15.00 0.00
            CHANNELS 3 Yrotation Xrotation Zrotation
            JOINT LeftFoot
            {
                OFFSET 0.00 -15.00 5.00
                CHANNELS 3 Yrotation Xrotation Zrotation
                End Site
                {
                    OFFSET 0.00 -5.00 5.00
                }
            }
        }
    }
    JOINT RightUpLeg
    {
        OFFSET 5.00 0.00 0.00
        CHANNELS 3 Yrotation Xrotation Zrotation
        JOINT RightLeg
        {
            OFFSET 0.00 -15.00 0.00
            CHANNELS 3 Yrotation Xrotation Zrotation
            JOINT RightFoot
            {
                OFFSET 0.00 -15.00 5.00
                CHANNELS 3 Yrotation Xrotation Zrotation
                End Site
                {
                    OFFSET 0.00 -5.00 5.00
                }
            }
        }
    }
}
MOTION
Frames: 24
Frame Time: 0.0166667
0.000000 0.000000 2.000000 0.000000 0.000000 0.000000 0.000000 -0.000000 0.000000 0.000000 0.000000 0.000000 0.000000 0.000000 0.000000 0.000000 -0.000000 0.000000 0.000000 0.000000 0.000000 0.000000 0.000000 0.000000 0.000000 -0.000000 0.000000
0.000000 0.000000 4.000000 0.000000 0.000000 0.000000 0.000000 -0.500306 0.000000 0.000000 1.667687 0.000000 0.000000 5.003062 0.000000 0.000000 -2.501531 0.000000 0.000000 -1.667687 0.000000 0.000000 -5.003062 0.000000 0.000000 2.501531 0.000000
0.000000 0.000000 6.000000 0.000000 0.000000 0.000000 0.000000 -0.986600 0.000000 0.000000 3.288666 0.000000 0.000000 9.865999 0.000000 0.000000 -4.933000 0.000000 0.000000 -3.288666 0.000000 0.000000 -9.865999 0.000000 0.000000 4.933000 0.000000
0.000000 0.000000 8.000000 0.000000 0.000000 0.000000 0.000000 -1.445261 0.000000 0.000000 4.817537 0.000000 0.000000 14.452610 0.000000 0.000000 -7.226305 0.000000 0.000000 -4.817537 0.000000 0.000000 -14.452610 0.000000 0.000000 7.226305 0.000000
0.000000 0.000000 10.000000 0.000000 0.000000 0.000000 0.000000 -1.863443 0.000000 0.000000 6.211478 0.000000 0.000000 18.634433 0.000000 0.000000 -9.317217 0.000000 0.000000 -6.211478 0.000000 0.000000 -18.634433 0.000000 0.000000 9.317217 0.000000
0.000000 0.000000 12.000000 0.000000 0.000000 0.000000 0.000000 -2.229434 0.000000 0.000000 7.431448 0.000000 0.000000 22.294345 0.000000 0.000000 -11.147172 0.000000 0.000000 -7.431448 0.000000 0.000000 -22.294345 0.000000 0.000000 11.147172 0.000000
0.000000 0.000000 14.000000 0.000000 0.000000 0.000000 0.000000 -2.532984 0.000000 0.000000 8.443279 0.000000 0.000000 25.329838 0.000000 0.000000 -12.664919 0.000000 0.000000 -8.443279 0.000000 0.000000 -25.329838 0.000000 0.000000 12.664919 0.000000
0.000000 0.000000 16.000000 0.000000 0.000000 0.000000 0.000000 -2.765589 0.000000 0.000000 9.218632 0.000000 0.000000 27.655895 0.000000 0.000000 -13.827947 0.000000 0.000000 -9.218632 0.000000 0.000000 -27.655895 0.000000 0.000000 13.827947 0.000000
0.000000 0.000000 18.000000 0.000000 0.000000 0.000000 0.000000 -2.920737 0.000000 0.000000 9.735789 0.000000 0.000000 29.207367 0.000000 0.000000 -14.603684 0.000000 0.000000 -9.735789 0.000000 0.000000 -29.207367 0.000000 0.000000 14.603684 0.000000
0.000000 0.000000 20.000000 0.000000 0.000000 0.000000 0.000000 -2.994080 0.000000 0.000000 9.980267 0.000000 0.000000 29.940802 0.000000 0.000000 -14.970401 0.000000 0.000000 -9.980267 0.000000 0.000000 -29.940802 0.000000 0.000000 14.970401 0.000000
0.000000 0.000000 22.000000 0.000000 0.000000 0.000000 0.000000 -2.983566 0.000000 0.000000 9.945219 0.000000 0.000000 29.835657 0.000000 0.000000 -14.917828 0.000000 0.000000 -9.945219 0.000000 0.000000 -29.835657 0.000000 0.000000 14.917828 0.000000
0.000000 0.000000 24.000000 0.000000 0.000000 0.000000 0.000000 -2.889488 0.000000 0.000000 9.631626 0.000000 0.000000 28.894877 0.000000 0.000000 -14.447439 0.000000 0.000000 -9.631626 0.000000 0.000000 -28.894877 0.000000 0.000000 14.447439 0.000000
0.000000 0.000000 26.000000 0.000000 0.000000 0.000000 0.000000 -2.714481 0.000000 0.000000 9.048271 0.000000 0.000000 27.144812 0.000000 0.000000 -13.572406 0.000000 0.000000 -9.048271 0.000000 0.000000 -27.144812 0.000000 0.000000 13.572406 0.000000
0.000000 0.000000 28.000000 0.000000 0.000000 0.000000 0.000000 -2.463448 0.000000 0.000000 8.211492 0.000000 0.000000 24.634476 0.000000 0.000000 -12.317238 0.000000 0.000000 -8.211492 0.000000 0.000000 -24.634476 0.000000 0.000000 12.317238 0.000000
0.000000 0.000000 30.000000 0.000000 0.000000 0.000000 0.000000 -2.143418 0.000000 0.000000 7.144727 0.000000 0.000000 21.434180 0.000000 0.000000 -10.717090 0.000000 0.000000 -7.144727 0.000000 0.000000 -21.434180 0.000000 0.000000 10.717090 0.000000
0.000000 0.000000 32.000000 0.000000 0.000000 0.000000 0.000000 -1.763356 0.000000 0.000000 5.877853 0.000000 0.000000 17.633558 0.000000 0.000000 -8.816779 0.000000 0.000000 -5.877853 0.000000 0.000000 -17.633558 0.000000 0.000000 8.816779 0.000000
0.000000 0.000000 34.000000 0.000000 0.000000 0.000000 0.000000 -1.333906 0.000000 0.000000 4.446352 0.000000 0.000000 13.339055 0.000000 0.000000 -6.669528 0.000000 0.000000 -4.446352 0.000000 0.000000 -13.339055 0.000000 0.000000 6.669528 0.000000
0.000000 0.000000 36.000000 0.000000 0.000000 0.000000 0.000000 -0.867095 0.000000 0.000000 2.890318 0.000000 0.000000 8.670954 0.000000 0.000000 -4.335477 0.000000 0.000000 -2.890318 0.000000 0.000000 -8.670954 0.000000 0.000000 4.335477 0.000000
0.000000 0.000000 38.000000 0.000000 0.000000 0.000000 0.000000 -0.376000 0.000000 0.000000 1.253332 0.000000 0.000000 3.759997 0.000000 0.000000 -1.879999 0.000000 0.000000 -1.253332 0.000000 0.000000 -3.759997 0.000000 0.000000 1.879999 0.000000
0.000000 0.000000 40.000000 0.000000 0.000000 0.000000 0.000000 0.125627 0.000000 0.000000 -0.418757 0.000000 0.000000 -1.256270 0.000000 0.000000 0.628135 0.000000 0.000000 0.418757 0.000000 0.000000 1.256270 0.000000 0.000000 -0.628135 0.000000
0.000000 0.000000 42.000000 0.000000 0.000000 0.000000 0.000000 0.623735 0.000000 0.000000 -2.079117 0.000000 0.000000 -6.237351 0.000000 0.000000 3.118675 0.000000 0.000000 2.079117 0.000000 0.000000 6.237351 0.000000 0.000000 -3.118675 0.000000
0.000000 0.000000 44.000000 0.000000 0.000000 0.000000 0.000000 1.104374 0.000000 0.000000 -3.681246 0.000000 0.000000 -11.043737 0.000000 0.000000 5.521868 0.000000 0.000000 3.681246 0.000000 0.000000 11.043737 0.000000 0.000000 -5.521868 0.000000
0.000000 0.000000 46.000000 0.000000 0.000000 0.000000 0.000000 1.554081 0.000000 0.000000 -5.180270 0.000000 0.000000 -15.540810 0.000000 0.000000 7.770405 0.000000 0.000000 5.180270 0.000000 0.000000 15.540810 0.000000 0.000000 -7.770405 0.000000
0.000000 0.000000 48.000000 0.000000 0.000000 0.000000 0.000000 1.960262 0.000000 0.000000 -6.534206 0.000000 0.000000 -19.602618 0.000000 0.000000 9.801309 0.000000 0.000000 6.534206 0.000000 0.000000 19.602618 0.000000 0.000000 -9.801309 0.000000
